HIERARCHY
ROOT reference
{
  OFFSET 0 0 0
  CHANNELS 6 Xposition Yposition Zposition Zrotation Xrotation Yrotation
  JOINT Hips
  {
    OFFSET -29.6977 84.5938 106.288
    CHANNELS 6 Xposition Yposition Zposition Zrotation Xrotation Yrotation
    JOINT Spine
    {
      OFFSET 0 8.22665 0
      CHANNELS 6 Xposition Yposition Zposition Zrotation Xrotation Yrotation
      JOINT Spine1
      {
        OFFSET 0 24.451 0
        CHANNELS 6 Xposition Yposition Zposition Zrotation Xrotation Yrotation
        JOINT Neck
        {
          OFFSET 0 24.3506 2.21369
          CHANNELS 6 Xposition Yposition Zposition Zrotation Xrotation Yrotation
          JOINT Head
          {
            OFFSET 0 14.0455 -2.0065
            CHANNELS 6 Xposition Yposition Zposition Zrotation Xrotation Yrotation
            End Site
            {
              OFFSET 0 25.0812 0
            }
          }
        }
        JOINT LeftShoulder
        {
          OFFSET 4.0594 22.2558 -0.272799
          CHANNELS 6 Xposition Yposition Zposition Zrotation Xrotation Yrotation
          JOINT LeftArm
          {
            OFFSET 12.0298 0 0
            CHANNELS 6 Xposition Yposition Zposition Zrotation Xrotation Yrotation
            JOINT LeftForeArm
            {
              OFFSET 31.2689 0 0
              CHANNELS 6 Xposition Yposition Zposition Zrotation Xrotation Yrotation
              JOINT LeftHand
              {
                OFFSET 28.0275 0 0
                CHANNELS 6 Xposition Yposition Zposition Zrotation Xrotation Yrotation
                End Site
                {
                  OFFSET 15.0487 0 0
                }
              }
            }
          }
        }
        JOINT RightShoulder
        {
          OFFSET -3.96464 22.2558 -0.272799
          CHANNELS 6 Xposition Yposition Zposition Zrotation Xrotation Yrotation
          JOINT RightArm
          {
            OFFSET -12.0298 0 0
            CHANNELS 6 Xposition Yposition Zposition Zrotation Xrotation Yrotation
            JOINT RightForeArm
            {
              OFFSET -31.2689 0 0
              CHANNELS 6 Xposition Yposition Zposition Zrotation Xrotation Yrotation
              JOINT RightHand
              {
                OFFSET -28.0275 0 0
                CHANNELS 6 Xposition Yposition Zposition Zrotation Xrotation Yrotation
                End Site
                {
                  OFFSET -15.0487 0 0
                }
              }
            }
          }
        }
      }
    }
    JOINT LeftUpLeg
    {
      OFFSET 10.0325 0 0
      CHANNELS 6 Xposition Yposition Zposition Zrotation Xrotation Yrotation
      JOINT LeftLeg
      {
        OFFSET 0 -38.4033 0
        CHANNELS 6 Xposition Yposition Zposition Zrotation Xrotation Yrotation
        JOINT LeftFoot
        {
          OFFSET 0 -44.1642 0
          CHANNELS 6 Xposition Yposition Zposition Zrotation Xrotation Yrotation
          JOINT LeftToeBase
          {
            OFFSET 0 -6.52112 15.0487
            CHANNELS 6 Xposition Yposition Zposition Zrotation Xrotation Yrotation
            End Site
            {
              OFFSET 0 0 4.013
            }
          }
        }
      }
    }
    JOINT RightUpLeg
    {
      OFFSET -10.0325 0 0
      CHANNELS 6 Xposition Yposition Zposition Zrotation Xrotation Yrotation
      JOINT RightLeg
      {
        OFFSET 0 -38.4033 0
        CHANNELS 6 Xposition Yposition Zposition Zrotation Xrotation Yrotation
        JOINT RightFoot
        {
          OFFSET 0 -44.1642 0
          CHANNELS 6 Xposition Yposition Zposition Zrotation Xrotation Yrotation
          JOINT RightToeBase
          {
            OFFSET 0 -6.52112 15.0487
            CHANNELS 6 Xposition Yposition Zposition Zrotation Xrotation Yrotation
            End Site
            {
              OFFSET 0 0 4.013
            }
          }
        }
      }
    }
  }
}
MOTION
Frames:	8
Frame Time:	0.004
0 0 0 0 0 -0 -2.64253 63.8913 -175.802 -2.004 -7.26793 -12.6111 0 8.22665 0 -2.91438 56.7731 2.93057 0 24.451 2.84217e-014 -6.29012 8.27414 1.81047 0 24.3506 2.21369 1.71533 15.4695 10.5824 -2.66454e-015 14.0455 -2.0065 -19.3593 -41.5553 1.35445 4.0594 22.2558 -0.272799 -5.02121 4.759 -20.7693 12.0298 0 0 -39.5203 39.4246 -29.7785 31.2689 0 7.10543e-015 30.9941 -42.6806 -85.7283 28.0275 0 7.10543e-015 33.4113 -9.93559 23.4038 -3.96464 22.2558 -0.272799 6.53121 7.06058 18.9565 -12.0298 -1.42109e-014 2.84217e-014 30.6103 50.8186 33.2451 -31.2689 0 -7.10543e-015 -37.4113 -38.6265 80.3018 -28.0275 0 0 -1.92064 -7.83479 -23.9982 10.0325 0 0 18.4829 -46.1582 17.7988 1.77636e-015 -38.4033 0 -104.973 86.4151 88.2623 3.55271e-015 -44.1642 0 13.8302 -29.4673 16.4303 8.88178e-016 -6.52112 15.0487 -4.96962e-017 0 -0 -10.0325 1.42109e-014 -2.84217e-014 -19.9361 -32.606 -9.39886 0 -38.4033 -1.42109e-014 -109.667 82.9964 107.722 1.42109e-014 -44.1642 0 13.6599 -19.2754 -7.92406 -2.84217e-014 -6.52112 15.0487 -9.54166e-015 0 -3.18055e-015 
0 0 0 0 0 -0 -2.6253 63.9276 -175.75 -1.99692 -7.22723 -12.6896 0 8.22665 0 -2.8907 56.6598 2.85674 0 24.451 0 -6.29864 8.37589 1.75935 0 24.3506 2.21369 1.71494 15.376 10.6619 8.88178e-016 14.0455 -2.0065 -19.311 -41.4391 1.48032 4.0594 22.2558 -0.272799 -5.0286 4.80849 -20.7994 12.0298 -1.42109e-014 0 -39.6065 39.3606 -29.6641 31.2689 -2.84217e-014 7.10543e-015 31.2906 -42.7478 -85.5682 28.0275 -1.42109e-014 7.10543e-015 33.3765 -9.86762 23.2122 -3.96464 22.2558 -0.272799 6.54049 7.10273 18.9445 -12.0298 -1.42109e-014 2.84217e-014 30.4132 50.8605 33.4632 -31.2689 2.84217e-014 0 -37.5468 -38.6464 80.1893 -28.0275 -1.42109e-014 -7.10543e-015 -1.73796 -7.83054 -24.0612 10.0325 -1.42109e-014 0 18.5073 -46.1562 17.9277 1.77636e-015 -38.4033 -7.10543e-015 -105.794 86.5928 89.0101 0 -44.1642 -2.84217e-014 13.7458 -29.3912 16.3054 1.77636e-015 -6.52112 15.0487 9.69075e-016 7.95139e-016 -0 -10.0325 -1.42109e-014 0 -19.8306 -32.4469 -9.35081 0 -38.4033 1.42109e-014 -107.972 83.0569 105.966 0 -44.1642 1.42109e-014 13.8239 -19.5718 -8.13453 0 -6.52112 15.0487 3.18055e-015 0 -0 
0 0 0 0 0 -0 -2.60832 63.9595 -175.697 -1.9838 -7.17948 -12.7818 -7.10543e-015 8.22665 2.84217e-014 -2.87115 56.5226 2.79139 0 24.451 -2.84217e-014 -6.33488 8.51187 1.71919 0 24.3506 2.21369 1.64355 15.2399 10.6984 2.66454e-015 14.0455 -2.0065 -19.132 -41.3572 1.62093 4.0594 22.2558 -0.272799 -4.99237 4.78728 -20.8114 12.0298 0 0 -39.7559 39.3221 -29.545 31.2689 2.84217e-014 -7.10543e-015 31.4638 -42.7658 -85.4972 28.0275 1.42109e-014 0 33.4644 -9.78626 23.0264 -3.96464 22.2558 -0.272799 6.53402 7.08049 18.9594 -12.0298 1.42109e-014 -2.84217e-014 30.3003 50.9814 33.6471 -31.2689 0 -7.10543e-015 -37.7828 -38.7178 79.9741 -28.0275 1.42109e-014 0 -1.52198 -7.86239 -24.1111 10.0325 0 2.84217e-014 18.5251 -46.1306 17.8846 -1.77636e-015 -38.4033 -1.42109e-014 -105.197 86.6128 88.2581 7.10543e-015 -44.1642 0 13.8202 -29.4106 16.2886 3.55271e-015 -6.52112 15.0487 4.96962e-017 0 -3.97569e-016 -10.0325 0 2.84217e-014 -19.7145 -32.3051 -9.28894 0 -38.4033 -1.42109e-014 -106.197 83.0609 104.186 0 -44.1642 0 13.9136 -19.9048 -8.31894 0 -6.52112 15.0487 3.18055e-015 9.54166e-015 -6.36111e-015 
0 0 0 0 0 -0 -2.58991 63.9954 -175.643 -1.96716 -7.1252 -12.8857 -7.10543e-015 8.22665 -2.84217e-014 -2.86901 56.4351 2.73454 0 24.451 0 -6.37272 8.53207 1.67026 0 24.3506 2.21369 1.7652 15.2898 10.7853 1.77636e-015 14.0455 -2.0065 -19.3438 -41.3411 1.6078 4.0594 22.2558 -0.272799 -4.998 4.839 -20.8263 12.0298 -1.42109e-014 0 -39.8717 39.2601 -29.4024 31.2689 2.84217e-014 0 31.6558 -42.7997 -85.4182 28.0275 -2.84217e-014 7.10543e-015 33.4682 -9.71153 22.8994 -3.96464 22.2558 -0.272799 6.53778 7.13295 19.0126 -12.0298 -1.42109e-014 -2.84217e-014 30.2333 51.0207 33.7535 -31.2689 0 0 -37.8942 -38.7428 79.8754 -28.0275 1.42109e-014 0 -1.36875 -7.8755 -24.1445 10.0325 -1.42109e-014 0 18.5481 -46.0944 17.8508 0 -38.4033 -7.10543e-015 -104.104 86.6261 86.9444 0 -44.1642 0 14.2611 -29.4338 16.416 1.77636e-015 -6.52112 15.0487 1.2424e-016 3.97569e-016 7.95139e-016 -10.0325 0 -2.84217e-014 -19.5649 -32.1827 -9.14423 0 -38.4033 1.42109e-014 -104.327 83.0562 102.275 0 -44.1642 0 14.0076 -20.1582 -8.39498 0 -6.52112 15.0487 -1.76556e-031 3.18055e-015 3.18055e-015 
0 0 0 0 0 -0 -2.56643 64.0318 -175.589 -1.93677 -7.07064 -12.9789 -7.10543e-015 8.22665 0 -2.8737 56.3168 2.67801 7.10543e-015 24.451 -2.84217e-014 -6.40408 8.60797 1.62167 -3.55271e-015 24.3506 2.21369 1.82677 15.3086 10.8467 0 14.0455 -2.0065 -19.446 -41.3441 1.61988 4.0594 22.2558 -0.272799 -5.00369 4.87399 -20.8341 12.0298 2.84217e-014 0 -39.9682 39.1869 -29.2979 31.2689 0 0 31.7399 -42.8103 -85.4304 28.0275 -1.42109e-014 0 33.4831 -9.63579 22.8705 -3.96464 22.2558 -0.272799 6.51231 7.18452 19.0587 -12.0298 2.84217e-014 0 30.188 50.9928 33.8592 -31.2689 2.84217e-014 0 -37.9514 -38.7294 79.8299 -28.0275 -1.42109e-014 -7.10543e-015 -1.15414 -7.8748 -24.1421 10.0325 1.42109e-014 0 18.5303 -46.0734 17.8403 0 -38.4033 7.10543e-015 -103.259 86.6852 85.8765 -3.55271e-015 -44.1642 0 14.5695 -29.4088 16.525 -8.88178e-016 -6.52112 15.0487 1.71452e-015 7.95139e-016 -7.95139e-016 -10.0325 0 2.84217e-014 -19.4257 -32.0699 -9.02836 0 -38.4033 1.42109e-014 -102.315 82.9803 100.174 0 -44.1642 0 14.1928 -20.3737 -8.36554 0 -6.52112 15.0487 3.18055e-015 -9.54166e-015 -0 
0 0 0 0 0 -0 -2.53049 64.0703 -175.54 -1.89508 -7.02141 -13.0296 0 8.22665 0 -2.78604 56.2559 2.55445 7.10543e-015 24.451 2.84217e-014 -6.45782 8.63045 1.55226 7.10543e-015 24.3506 2.21369 1.96817 15.2367 10.9005 1.77636e-015 14.0455 -2.0065 -19.6379 -41.1975 1.60262 4.0594 22.2558 -0.272799 -4.9974 4.9043 -20.8554 12.0298 0 0 -40.0793 39.1183 -29.1904 31.2689 0 -7.10543e-015 31.876 -42.8304 -85.4054 28.0275 0 7.10543e-015 33.3646 -9.58336 22.7905 -3.96464 22.2558 -0.272799 6.47304 7.24251 19.032 -12.0298 0 0 30.1095 50.978 34.0348 -31.2689 0 -1.42109e-014 -37.9216 -38.7037 79.8511 -28.0275 1.42109e-014 7.10543e-015 -1.13738 -7.86333 -24.0723 10.0325 0 0 18.435 -46.0693 17.6897 0 -38.4033 -7.10543e-015 -101.896 86.653 84.36 -3.55271e-015 -44.1642 0 14.5359 -29.4002 16.5811 -8.88178e-016 -6.52112 15.0487 -2.48481e-016 3.97569e-016 -0 -10.0325 0 0 -19.3295 -31.9183 -8.66594 0 -38.4033 0 -100.392 83.146 98.2341 0 -44.1642 -1.42109e-014 14.3395 -20.6094 -8.29975 0 -6.52112 15.0487 -0 -6.36111e-015 -0 
0 0 0 0 0 -0 -2.49257 64.1119 -175.485 -1.85467 -6.97368 -13.0913 0 8.22665 0 -2.70625 56.2012 2.439 0 24.451 0 -6.51578 8.65791 1.48715 -3.55271e-015 24.3506 2.21369 2.01786 15.1386 10.9426 -2.66454e-015 14.0455 -2.0065 -19.6512 -41.0824 1.65759 4.0594 22.2558 -0.272799 -5.01376 4.89884 -20.8607 12.0298 2.84217e-014 2.84217e-014 -40.2003 39.1067 -29.0663 31.2689 0 0 32.0176 -42.8981 -85.375 28.0275 1.42109e-014 0 33.2282 -9.62378 22.6198 -3.96464 22.2558 -0.272799 6.46565 7.27343 18.9967 -12.0298 -1.42109e-014 0 30.0163 50.9987 34.2016 -31.2689 0 0 -37.9453 -38.7009 79.8422 -28.0275 0 7.10543e-015 -0.948362 -7.88122 -24.0862 10.0325 0 0 18.3363 -46.0424 17.516 0 -38.4033 1.42109e-014 -100.316 86.5834 82.635 0 -44.1642 -2.84217e-014 14.6192 -29.391 16.685 -1.77636e-015 -6.52112 15.0487 -2.48481e-016 3.97569e-016 7.95139e-016 -10.0325 0 0 -19.2293 -31.7975 -8.40554 0 -38.4033 0 -98.6952 83.1616 96.6175 -1.42109e-014 -44.1642 1.42109e-014 14.4144 -20.7868 -8.31219 -2.84217e-014 -6.52112 15.0487 -3.18055e-015 -3.18055e-015 6.36111e-015 
0 0 0 0 0 -0 -2.45608 64.1538 -175.43 -1.81505 -6.91551 -13.1598 0 8.22665 0 -2.62161 56.1233 2.33502 7.10543e-015 24.451 0 -6.59603 8.69345 1.43882 3.55271e-015 24.3506 2.21369 2.07895 15.0738 10.989 -8.88178e-016 14.0455 -2.0065 -19.6695 -41.0017 1.70914 4.0594 22.2558 -0.272799 -5.00896 4.89278 -20.9 12.0298 0 0 -40.3357 39.0713 -28.9205 31.2689 0 0 32.1529 -42.9419 -85.3364 28.0275 0 0 33.0258 -9.63131 22.5326 -3.96464 22.2558 -0.272799 6.45302 7.28326 18.9811 -12.0298 0 -2.84217e-014 30.0514 50.9709 34.2527 -31.2689 0 0 -37.877 -38.6516 79.9256 -28.0275 1.42109e-014 7.10543e-015 -0.81618 -7.86266 -24.1321 10.0325 1.42109e-014 0 18.2591 -46.0244 17.4024 0 -38.4033 0 -99.1109 86.5341 81.2577 0 -44.1642 0 14.5507 -29.3562 16.7851 0 -6.52112 15.0487 8.69683e-016 3.97569e-016 -2.38542e-015 -10.0325 -1.42109e-014 0 -19.1051 -31.7106 -8.14013 0 -38.4033 -1.42109e-014 -97.0422 83.1389 94.9423 0 -44.1642 0 14.5623 -20.8973 -8.26504 2.84217e-014 -6.52112 15.0487 -3.18055e-015 3.18055e-015 -0 
